# xmcd
#
# Track frame offsets: 
#        150
#        16614
#        27310
#        43526
#        58042
#        72771
#        91055
#        106153
#        128004
#        139329
#        158145
#        172619
#        187147
#
# Disc length: 2742 seconds
#
# Revision: 3
# Processed by: cddbd v1.5.2PL0 Copyright (c) Steve Scherf et al.
# Submitted via: ExactAudioCopyFreeDBPlugin 1.0
#
DISCID=9d0ab40d
DTITLE=Bela B and The Smokestack Lightnin' co-starring Peta Devlin, Walt
DTITLE=er Broes, Linda Kay - Bye
DYEAR=2014
DGENRE=Country
TTITLE0=abserviert
TTITLE1=wenn das mal liebe wird
TTITLE2=streichholzmann
TTITLE3=der sünder
TTITLE4=immer so sein
TTITLE5=sentimental
TTITLE6=teufelsküche
TTITLE7=nicht nice
TTITLE8=belphegor
TTITLE9=verwoehn
TTITLE10=bombe tickt
TTITLE11=my soul - dein herz (feat. lynda kay)
TTITLE12=peng!
EXTD=
EXTT0=
EXTT1=
EXTT2=
EXTT3=
EXTT4=
EXTT5=
EXTT6=
EXTT7=
EXTT8=
EXTT9=
EXTT10=
EXTT11=
EXTT12=
PLAYORDER=
